<?xml version="1.0" encoding="utf-8"?>
<!-- Generator: Adobe Illustrator 16.0.4, SVG Export Plug-In . SVG Version: 6.00 Build 0)  -->
<!DOCTYPE svg PUBLIC "-//W3C//DTD SVG 1.1//EN" "http://www.w3.org/Graphics/SVG/1.1/DTD/svg11.dtd">
<svg version="1.1" id="Defpoints" xmlns="http://www.w3.org/2000/svg" xmlns:xlink="http://www.w3.org/1999/xlink" x="0px" y="0px"
	 width="1083px" height="1131px" viewBox="0 0 1083 1131" enable-background="new 0 0 1083 1131" xml:space="preserve">
<rect x="-0.194" y="-0.086" fill="#E0E2E0" stroke="#515151" stroke-width="1.4173" stroke-linecap="round" stroke-linejoin="round" stroke-miterlimit="10" width="1083.389" height="1131.086"/>
<polyline fill="#FFFFFF" stroke="#515151" stroke-width="1.4173" stroke-linecap="round" stroke-linejoin="round" stroke-miterlimit="10" points="
	126.577,261.752 126.577,158.366 95.637,158.366 67.805,195.95 67.805,261.972 67.805,268.77 119.56,268.77 "/>
<polyline fill="#FFFFFF" points="67.805,349.698 67.805,274.033 131.84,274.033 131.84,63.507 302.016,63.507 302.016,148.595 
	288.858,148.595 288.858,349.698 "/>
<rect x="622.929" y="260.4" fill="#FFFFFF" width="30.841" height="51.352"/>
<polygon fill="#FFFFFF" points="659.033,109.998 659.033,214.165 627.454,214.165 627.454,253.858 659.033,253.858 659.033,311.752 
	706.401,311.752 706.401,57.367 604.646,57.367 604.646,109.998 "/>
<polyline fill="#FFFFFF" points="653.77,119.333 653.77,206.489 484.033,206.489 484.033,57.923 484.091,57.923 599.156,57.923 
	599.156,115.817 653.77,115.817 "/>
<polyline fill="#FFFFFF" points="961.781,289.506 961.781,262.312 974.822,262.312 974.822,163.19 825.816,163.19 825.816,268.904 
	846.417,289.506 "/>
<rect x="718.426" y="162.633" fill="#FFFFFF" width="102.04" height="102.635"/>
<rect x="718.424" y="62.63" fill="#FCFCFC" width="256.4" height="94.737"/>
<polyline fill="#FFFFFF" points="718.424,423.159 718.424,270.524 716.928,270.524 820.466,270.527 844.15,294.211 974.852,294.211 
	974.852,423.159 "/>
<polyline fill="#FFFFFF" stroke="#515151" stroke-width="1.4173" stroke-linecap="round" stroke-linejoin="round" stroke-miterlimit="10" points="
	288.858,354.952 67.77,354.952 67.77,539.362 106.151,577.743 288.858,577.743 "/>
<polyline fill="#FFFFFF" stroke="#515151" stroke-width="1.4173" stroke-linecap="round" stroke-linejoin="round" stroke-miterlimit="10" points="
	294.076,156.928 310.291,156.928 310.291,57.367 478.579,57.367 478.579,211.752 621.889,211.752 621.889,317.983 706.032,317.983 
	707.697,791.2 706.032,790.7 236.226,790.7 236.226,660.148 254.783,641.577 294.076,641.577 "/>
<rect x="548.537" y="795.963" fill="#FFFFFF" stroke="#515151" stroke-width="1.4173" stroke-linecap="round" stroke-linejoin="round" stroke-miterlimit="10" width="152.602" height="110.526"/>
<rect x="390.612" y="795.963" fill="#FFFFFF" stroke="#515151" stroke-width="1.4173" stroke-linecap="round" stroke-linejoin="round" stroke-miterlimit="10" width="152.632" height="110.526"/>
<rect x="233.597" y="795.963" fill="#FFFFFF" stroke="#515151" stroke-width="1.4173" stroke-linecap="round" stroke-linejoin="round" stroke-miterlimit="10" width="151.75" height="110.526"/>
<polyline fill="#FFFFFF" stroke="#515151" stroke-width="1.4173" stroke-linecap="round" stroke-linejoin="round" stroke-miterlimit="10" points="
	974.822,842.179 911.994,905.007 711.4,905.007 711.4,428.419 711.665,428.419 974.822,428.419 "/>
<g id="LWPOLYLINE_36_">
	
		<line fill="none" stroke="#3F7F6F" stroke-width="0.8504" stroke-linecap="round" stroke-linejoin="round" stroke-miterlimit="10" stroke-dasharray="0.625,0.125,0.125,0.125,0.125,0.125" x1="627.189" y1="223.429" x2="627.189" y2="244.481"/>
</g>
<g id="LWPOLYLINE_51_">
	
		<line fill="none" stroke="#3F7F6F" stroke-width="0.8504" stroke-linecap="round" stroke-linejoin="round" stroke-miterlimit="10" stroke-dasharray="0.625,0.125,0.125,0.125,0.125,0.125" x1="711.4" y1="57.367" x2="711.4" y2="312.63"/>
</g>
<g id="LWPOLYLINE_52_">
	
		<line fill="none" stroke="#3F7F6F" stroke-width="0.8504" stroke-linecap="round" stroke-linejoin="round" stroke-miterlimit="10" stroke-dasharray="0.625,0.125,0.125,0.125,0.125,0.125" x1="711.4" y1="317.983" x2="711.4" y2="906.489"/>
</g>
<g id="LWPOLYLINE_190_">
	
		<rect x="-0.194" y="-0.086" fill="none" stroke="#000000" stroke-width="0.7087" stroke-linecap="round" stroke-linejoin="round" stroke-miterlimit="10" width="1083.389" height="1131.172"/>
</g>
<g id="LWPOLYLINE_191_">
	
		<polyline fill="none" stroke="#000000" stroke-width="1.4173" stroke-linecap="round" stroke-linejoin="round" stroke-miterlimit="10" points="
		706.401,905.612 706.401,790.7 236.226,790.7 236.226,774.91 183.595,774.91 183.595,712.78 254.798,641.577 294.121,641.577 
		294.121,156.928 310.349,156.928 310.349,57.367 478.77,57.367 478.77,211.752 622.191,211.752 622.191,317.984 711.665,317.983 
		711.665,428.419 974.822,428.419 974.822,842.179 910.513,906.489 706.401,906.489 706.401,52.104 	"/>
</g>
<g id="LWPOLYLINE_192_">
	
		<line fill="none" stroke="#000000" stroke-width="1.4173" stroke-linecap="round" stroke-linejoin="round" stroke-miterlimit="10" x1="236.226" y1="774.91" x2="236.226" y2="660.148"/>
</g>
<g id="LWPOLYLINE_193_">
	
		<rect x="233.597" y="795.963" fill="none" stroke="#000000" stroke-width="1.4173" stroke-linecap="round" stroke-linejoin="round" stroke-miterlimit="10" width="151.75" height="110.526"/>
</g>
<g id="LWPOLYLINE_194_">
	
		<rect x="390.612" y="795.963" fill="none" stroke="#000000" stroke-width="1.4173" stroke-linecap="round" stroke-linejoin="round" stroke-miterlimit="10" width="152.632" height="110.526"/>
</g>
<g id="LWPOLYLINE_195_">
	
		<rect x="548.537" y="795.963" fill="none" stroke="#000000" stroke-width="1.4173" stroke-linecap="round" stroke-linejoin="round" stroke-miterlimit="10" width="152.602" height="110.526"/>
</g>
<g id="LWPOLYLINE_196_">
	
		<polyline fill="none" stroke="#000000" stroke-width="1.4173" stroke-linecap="round" stroke-linejoin="round" stroke-miterlimit="10" points="
		974.852,294.211 974.822,423.159 716.957,423.159 716.928,270.524 820.466,270.527 844.15,294.211 974.822,294.211 	"/>
</g>
<g id="LWPOLYLINE_197_">
	
		<polyline fill="none" stroke="#000000" stroke-width="1.4173" stroke-linecap="round" stroke-linejoin="round" stroke-miterlimit="10" points="
		718.426,162.633 820.438,162.633 820.466,265.268 718.424,265.268 718.426,162.633 	"/>
</g>
<g id="LWPOLYLINE_198_">
	
		<polyline fill="none" stroke="#000000" stroke-width="1.4173" stroke-linecap="round" stroke-linejoin="round" stroke-miterlimit="10" points="
		825.816,163.19 974.822,163.19 974.822,262.312 961.781,262.312 961.781,289.506 846.417,289.506 825.816,268.904 825.816,163.19 	
		"/>
</g>
<g id="LWPOLYLINE_199_">
	
		<polyline fill="none" stroke="#000000" stroke-width="1.4173" stroke-linecap="round" stroke-linejoin="round" stroke-miterlimit="10" points="
		484.091,57.923 599.156,57.923 599.156,115.817 653.77,115.817 653.77,206.489 484.033,206.489 484.091,57.923 	"/>
</g>
<g id="LWPOLYLINE_200_">
	
		<polyline fill="none" stroke="#000000" stroke-width="1.4173" stroke-linecap="round" stroke-linejoin="round" stroke-miterlimit="10" points="
		711.665,57.367 604.646,57.367 604.646,109.998 659.033,109.998 659.033,211.752 627.454,211.752 627.454,253.858 659.033,253.858 
		659.033,312.63 711.665,312.63 711.665,57.367 711.379,57.367 	"/>
</g>
<g id="LWPOLYLINE_201_">
	
		<rect x="716.928" y="62.63" fill="none" stroke="#000000" stroke-width="1.4173" stroke-linecap="round" stroke-linejoin="round" stroke-miterlimit="10" width="257.896" height="94.737"/>
</g>
<g id="LWPOLYLINE_202_">
	
		<polyline fill="none" stroke="#000000" stroke-width="1.4173" stroke-linecap="round" stroke-linejoin="round" stroke-miterlimit="10" points="
		132.717,64.384 302.016,64.384 302.016,148.595 288.858,148.595 288.858,349.698 67.805,349.698 67.805,274.033 131.84,274.033 
		131.84,156.928 132.717,156.928 132.717,64.384 	"/>
</g>
<g id="LWPOLYLINE_203_">
	
		<polyline fill="none" stroke="#000000" stroke-width="1.4173" stroke-linecap="round" stroke-linejoin="round" stroke-miterlimit="10" points="
		67.805,354.961 288.858,354.952 288.909,577.743 106.151,577.743 67.805,539.327 67.856,354.952 	"/>
</g>
<g id="LWPOLYLINE_205_">
	
		<polyline fill="none" stroke="#000000" stroke-width="1.4173" stroke-linecap="round" stroke-linejoin="round" stroke-miterlimit="10" points="
		67.805,340.7 62.542,340.7 62.542,541.577 104.647,583.683 294.121,583.574 	"/>
</g>
<g id="LWPOLYLINE_206_">
	
		<polyline fill="none" stroke="#000000" stroke-width="1.4173" stroke-linecap="round" stroke-linejoin="round" stroke-miterlimit="10" points="
		67.805,231.928 67.805,195.95 96.701,156.928 126.577,156.928 126.577,268.77 67.805,268.77 67.805,263.507 62.542,263.507 
		62.542,277.542 67.805,277.542 	"/>
</g>
<g id="LWPOLYLINE_207_">
	
		<polyline fill="none" stroke="#000000" stroke-width="1.4173" stroke-linecap="round" stroke-linejoin="round" stroke-miterlimit="10" points="
		131.401,64.384 131.401,151.665 94.121,151.665 62.542,193.77 62.542,231.928 67.805,231.928 	"/>
</g>
<g id="INSERT">
	<g id="LINE">
		<line fill="none" x1="520.875" y1="206.489" x2="520.875" y2="211.752"/>
	</g>
	<g id="LINE_1_">
		<line fill="none" x1="489.296" y1="206.489" x2="489.296" y2="211.752"/>
	</g>
	<g id="LWPOLYLINE_211_">
		
			<rect x="489.296" y="174.911" fill="none" stroke="#000000" stroke-width="0.7087" stroke-linecap="round" stroke-linejoin="round" stroke-miterlimit="10" width="1.535" height="31.579"/>
	</g>
	<g id="LWPOLYLINE_212_">
		
			<line fill="none" stroke="#000000" stroke-width="0.7087" stroke-linecap="round" stroke-linejoin="round" stroke-miterlimit="10" x1="489.296" y1="206.489" x2="489.296" y2="211.752"/>
	</g>
	<g id="LWPOLYLINE_213_">
		
			<line fill="none" stroke="#000000" stroke-width="0.7087" stroke-linecap="round" stroke-linejoin="round" stroke-miterlimit="10" x1="520.875" y1="211.752" x2="520.875" y2="206.489"/>
	</g>
	<g id="ARC">
		
			<path fill="none" stroke="#000000" stroke-width="0.7087" stroke-linecap="round" stroke-linejoin="round" stroke-miterlimit="10" d="
			M520.875,206.489c-0.053-16.829-13.238-30.688-30.043-31.579"/>
	</g>
</g>
<g id="INSERT_1_">
	<g id="LINE_2_">
		<line fill="none" x1="641.489" y1="57.367" x2="641.489" y2="52.104"/>
	</g>
	<g id="LINE_3_">
		<line fill="none" x1="609.91" y1="57.367" x2="609.91" y2="52.104"/>
	</g>
	<g id="LWPOLYLINE_214_">
		
			<rect x="609.91" y="57.367" fill="none" stroke="#000000" stroke-width="0.7087" stroke-linecap="round" stroke-linejoin="round" stroke-miterlimit="10" width="1.535" height="31.579"/>
	</g>
	<g id="LWPOLYLINE_215_">
		
			<line fill="none" stroke="#000000" stroke-width="0.7087" stroke-linecap="round" stroke-linejoin="round" stroke-miterlimit="10" x1="609.91" y1="57.367" x2="609.91" y2="52.104"/>
	</g>
	<g id="LWPOLYLINE_216_">
		
			<line fill="none" stroke="#000000" stroke-width="0.7087" stroke-linecap="round" stroke-linejoin="round" stroke-miterlimit="10" x1="641.489" y1="52.104" x2="641.489" y2="57.367"/>
	</g>
	<g id="ARC_1_">
		
			<path fill="none" stroke="#000000" stroke-width="0.7087" stroke-linecap="round" stroke-linejoin="round" stroke-miterlimit="10" d="
			M641.489,57.367c-0.059,16.829-13.238,30.688-30.044,31.579"/>
	</g>
</g>
<g id="INSERT_2_">
	<g id="LINE_4_">
		<line fill="none" x1="716.928" y1="99.472" x2="711.665" y2="99.472"/>
	</g>
	<g id="LINE_5_">
		<line fill="none" x1="716.928" y1="67.893" x2="711.665" y2="67.893"/>
	</g>
	<g id="LWPOLYLINE_217_">
		
			<rect x="716.928" y="67.893" fill="none" stroke="#000000" stroke-width="0.7087" stroke-linecap="round" stroke-linejoin="round" stroke-miterlimit="10" width="31.579" height="1.535"/>
	</g>
	<g id="LWPOLYLINE_218_">
		
			<line fill="none" stroke="#000000" stroke-width="0.7087" stroke-linecap="round" stroke-linejoin="round" stroke-miterlimit="10" x1="716.928" y1="67.893" x2="711.665" y2="67.893"/>
	</g>
	<g id="LWPOLYLINE_219_">
		
			<line fill="none" stroke="#000000" stroke-width="0.7087" stroke-linecap="round" stroke-linejoin="round" stroke-miterlimit="10" x1="711.665" y1="99.472" x2="716.928" y2="99.472"/>
	</g>
	<g id="ARC_2_">
		
			<path fill="none" stroke="#000000" stroke-width="0.7087" stroke-linecap="round" stroke-linejoin="round" stroke-miterlimit="10" d="
			M716.928,99.472c16.829-0.053,30.688-13.238,31.579-30.043"/>
	</g>
</g>
<g id="INSERT_3_">
	<g id="LINE_6_">
		<line fill="none" x1="980.582" y1="108.157" x2="975.319" y2="108.24"/>
	</g>
	<g id="LINE_7_">
		<line fill="none" x1="980.085" y1="76.582" x2="974.822" y2="76.665"/>
	</g>
	<g id="LWPOLYLINE_220_">
		
			<rect x="995.122" y="61.31" transform="matrix(-0.0153 -0.9999 0.9999 -0.0153 934.0041 1074.053)" fill="none" stroke="#000000" stroke-width="0.7087" stroke-linecap="round" stroke-linejoin="round" stroke-miterlimit="10" width="1.535" height="31.584"/>
	</g>
	<g id="LWPOLYLINE_221_">
		
			<line fill="none" stroke="#000000" stroke-width="0.7087" stroke-linecap="round" stroke-linejoin="round" stroke-miterlimit="10" x1="980.085" y1="76.582" x2="974.822" y2="76.665"/>
	</g>
	<g id="LWPOLYLINE_222_">
		
			<line fill="none" stroke="#000000" stroke-width="0.7087" stroke-linecap="round" stroke-linejoin="round" stroke-miterlimit="10" x1="975.319" y1="108.24" x2="980.582" y2="108.157"/>
	</g>
	<g id="ARC_3_">
		
			<path fill="none" stroke="#000000" stroke-width="0.7087" stroke-linecap="round" stroke-linejoin="round" stroke-miterlimit="10" d="
			M980.582,108.157c16.826-0.317,30.476-13.719,31.103-30.537"/>
	</g>
</g>
<g id="INSERT_4_">
	<g id="LINE_8_">
		<line fill="none" x1="716.928" y1="307.367" x2="711.665" y2="307.367"/>
	</g>
	<g id="LINE_9_">
		<line fill="none" x1="716.928" y1="275.788" x2="711.665" y2="275.788"/>
	</g>
	<g id="LWPOLYLINE_223_">
		
			<rect x="716.928" y="275.788" fill="none" stroke="#000000" stroke-width="0.7087" stroke-linecap="round" stroke-linejoin="round" stroke-miterlimit="10" width="31.579" height="1.535"/>
	</g>
	<g id="LWPOLYLINE_224_">
		
			<line fill="none" stroke="#000000" stroke-width="0.7087" stroke-linecap="round" stroke-linejoin="round" stroke-miterlimit="10" x1="716.928" y1="275.788" x2="711.665" y2="275.788"/>
	</g>
	<g id="LWPOLYLINE_225_">
		
			<line fill="none" stroke="#000000" stroke-width="0.7087" stroke-linecap="round" stroke-linejoin="round" stroke-miterlimit="10" x1="711.665" y1="307.367" x2="716.928" y2="307.367"/>
	</g>
	<g id="ARC_4_">
		
			<path fill="none" stroke="#000000" stroke-width="0.7087" stroke-linecap="round" stroke-linejoin="round" stroke-miterlimit="10" d="
			M716.928,307.367c16.829-0.053,30.688-13.238,31.579-30.044"/>
	</g>
</g>
<g id="INSERT_5_">
	<g id="LINE_10_">
		<line fill="none" x1="506.401" y1="795.963" x2="506.401" y2="790.7"/>
	</g>
	<g id="LINE_11_">
		<line fill="none" x1="537.98" y1="795.963" x2="537.98" y2="790.7"/>
	</g>
	<g id="LWPOLYLINE_226_">
		
			<rect x="536.445" y="795.963" fill="none" stroke="#000000" stroke-width="0.7087" stroke-linecap="round" stroke-linejoin="round" stroke-miterlimit="10" width="1.535" height="31.579"/>
	</g>
	<g id="LWPOLYLINE_227_">
		
			<line fill="none" stroke="#000000" stroke-width="0.7087" stroke-linecap="round" stroke-linejoin="round" stroke-miterlimit="10" x1="537.98" y1="795.963" x2="537.98" y2="790.7"/>
	</g>
	<g id="LWPOLYLINE_228_">
		
			<line fill="none" stroke="#000000" stroke-width="0.7087" stroke-linecap="round" stroke-linejoin="round" stroke-miterlimit="10" x1="506.401" y1="790.7" x2="506.401" y2="795.963"/>
	</g>
	<g id="ARC_5_">
		
			<path fill="none" stroke="#000000" stroke-width="0.7087" stroke-linecap="round" stroke-linejoin="round" stroke-miterlimit="10" d="
			M506.401,795.963c0.053,16.829,13.232,30.688,30.044,31.579"/>
	</g>
</g>
<g id="INSERT_6_">
	<g id="LINE_12_">
		<line fill="none" x1="664.244" y1="795.638" x2="664.298" y2="790.375"/>
	</g>
	<g id="LINE_13_">
		<line fill="none" x1="695.821" y1="795.963" x2="695.875" y2="790.7"/>
	</g>
	<g id="LWPOLYLINE_229_">
		
			<rect x="694.119" y="795.963" transform="matrix(0.9999 0.0102 -0.0102 0.9999 8.3135 -7.0436)" fill="none" stroke="#000000" stroke-width="0.7087" stroke-linecap="round" stroke-linejoin="round" stroke-miterlimit="10" width="1.532" height="31.568"/>
	</g>
	<g id="LWPOLYLINE_230_">
		
			<line fill="none" stroke="#000000" stroke-width="0.7087" stroke-linecap="round" stroke-linejoin="round" stroke-miterlimit="10" x1="695.821" y1="795.963" x2="695.875" y2="790.7"/>
	</g>
	<g id="LWPOLYLINE_231_">
		
			<line fill="none" stroke="#000000" stroke-width="0.7087" stroke-linecap="round" stroke-linejoin="round" stroke-miterlimit="10" x1="664.298" y1="790.375" x2="664.244" y2="795.638"/>
	</g>
	<g id="ARC_6_">
		
			<path fill="none" stroke="#000000" stroke-width="0.7087" stroke-linecap="round" stroke-linejoin="round" stroke-miterlimit="10" d="
			M664.244,795.638c-0.121,16.829,12.921,30.823,29.717,31.893"/>
	</g>
</g>
<g id="INSERT_7_">
	<g id="LINE_14_">
		<line fill="none" x1="352.016" y1="795.963" x2="352.016" y2="790.7"/>
	</g>
	<g id="LINE_15_">
		<line fill="none" x1="383.595" y1="795.963" x2="383.595" y2="790.7"/>
	</g>
	<g id="LWPOLYLINE_232_">
		
			<rect x="382.06" y="795.963" fill="none" stroke="#000000" stroke-width="0.7087" stroke-linecap="round" stroke-linejoin="round" stroke-miterlimit="10" width="1.535" height="31.579"/>
	</g>
	<g id="LWPOLYLINE_233_">
		
			<line fill="none" stroke="#000000" stroke-width="0.7087" stroke-linecap="round" stroke-linejoin="round" stroke-miterlimit="10" x1="383.595" y1="795.963" x2="383.595" y2="790.7"/>
	</g>
	<g id="LWPOLYLINE_234_">
		
			<line fill="none" stroke="#000000" stroke-width="0.7087" stroke-linecap="round" stroke-linejoin="round" stroke-miterlimit="10" x1="352.016" y1="790.7" x2="352.016" y2="795.963"/>
	</g>
	<g id="ARC_7_">
		
			<path fill="none" stroke="#000000" stroke-width="0.7087" stroke-linecap="round" stroke-linejoin="round" stroke-miterlimit="10" d="
			M352.016,795.963c0.059,16.829,13.238,30.688,30.044,31.579"/>
	</g>
</g>
<g id="INSERT_8_">
	<g id="LINE_16_">
		<line fill="none" x1="288.858" y1="542.136" x2="294.121" y2="542.136"/>
	</g>
	<g id="LINE_17_">
		<line fill="none" x1="288.858" y1="573.715" x2="294.121" y2="573.715"/>
	</g>
	<g id="LWPOLYLINE_235_">
		
			<rect x="257.279" y="572.18" fill="none" stroke="#000000" stroke-width="0.7087" stroke-linecap="round" stroke-linejoin="round" stroke-miterlimit="10" width="31.579" height="1.535"/>
	</g>
	<g id="LWPOLYLINE_236_">
		
			<line fill="none" stroke="#000000" stroke-width="0.7087" stroke-linecap="round" stroke-linejoin="round" stroke-miterlimit="10" x1="288.858" y1="573.715" x2="294.121" y2="573.715"/>
	</g>
	<g id="LWPOLYLINE_237_">
		
			<line fill="none" stroke="#000000" stroke-width="0.7087" stroke-linecap="round" stroke-linejoin="round" stroke-miterlimit="10" x1="294.121" y1="542.136" x2="288.858" y2="542.136"/>
	</g>
	<g id="ARC_8_">
		
			<path fill="none" stroke="#000000" stroke-width="0.7087" stroke-linecap="round" stroke-linejoin="round" stroke-miterlimit="10" d="
			M288.858,542.136c-16.83,0.059-30.688,13.238-31.579,30.044"/>
	</g>
</g>
<g id="INSERT_9_">
	<g id="LINE_18_">
		<line fill="none" x1="263.419" y1="62.63" x2="263.419" y2="57.367"/>
	</g>
	<g id="LINE_19_">
		<line fill="none" x1="294.998" y1="62.63" x2="294.998" y2="57.367"/>
	</g>
	<g id="LWPOLYLINE_238_">
		
			<rect x="293.463" y="62.63" fill="none" stroke="#000000" stroke-width="0.7087" stroke-linecap="round" stroke-linejoin="round" stroke-miterlimit="10" width="1.535" height="31.579"/>
	</g>
	<g id="LWPOLYLINE_239_">
		
			<line fill="none" stroke="#000000" stroke-width="0.7087" stroke-linecap="round" stroke-linejoin="round" stroke-miterlimit="10" x1="294.998" y1="62.63" x2="294.998" y2="57.367"/>
	</g>
	<g id="LWPOLYLINE_240_">
		
			<line fill="none" stroke="#000000" stroke-width="0.7087" stroke-linecap="round" stroke-linejoin="round" stroke-miterlimit="10" x1="263.419" y1="57.367" x2="263.419" y2="62.63"/>
	</g>
	<g id="ARC_9_">
		
			<path fill="none" stroke="#000000" stroke-width="0.7087" stroke-linecap="round" stroke-linejoin="round" stroke-miterlimit="10" d="
			M263.419,62.63c0.053,16.829,13.238,30.688,30.044,31.579"/>
	</g>
</g>
<g id="INSERT_10_">
	<g id="LINE_20_">
		<line fill="none" x1="627.454" y1="244.209" x2="622.191" y2="244.209"/>
	</g>
	<g id="LINE_21_">
		<line fill="none" x1="627.454" y1="212.63" x2="622.191" y2="212.63"/>
	</g>
	<g id="LWPOLYLINE_241_">
		
			<rect x="627.454" y="212.63" fill="none" stroke="#000000" stroke-width="0.7087" stroke-linecap="round" stroke-linejoin="round" stroke-miterlimit="10" width="31.579" height="1.535"/>
	</g>
	<g id="LWPOLYLINE_242_">
		
			<line fill="none" stroke="#000000" stroke-width="0.7087" stroke-linecap="round" stroke-linejoin="round" stroke-miterlimit="10" x1="627.454" y1="212.63" x2="622.191" y2="212.63"/>
	</g>
	<g id="LWPOLYLINE_243_">
		
			<line fill="none" stroke="#000000" stroke-width="0.7087" stroke-linecap="round" stroke-linejoin="round" stroke-miterlimit="10" x1="622.191" y1="244.209" x2="627.454" y2="244.209"/>
	</g>
	<g id="ARC_10_">
		
			<path fill="none" stroke="#000000" stroke-width="0.7087" stroke-linecap="round" stroke-linejoin="round" stroke-miterlimit="10" d="
			M627.454,244.209c16.829-0.053,30.688-13.238,31.579-30.044"/>
	</g>
</g>
<g id="LWPOLYLINE_246_">
	
		<rect x="68.3" y="440.128" fill="none" stroke="#000000" stroke-width="1.4173" stroke-linecap="round" stroke-linejoin="round" stroke-miterlimit="10" width="71.758" height="1.474"/>
</g>
<g id="LWPOLYLINE_247_">
	
		<rect x="204.427" y="355.054" fill="none" stroke="#000000" stroke-width="1.4173" stroke-linecap="round" stroke-linejoin="round" stroke-miterlimit="10" width="0.368" height="63.989"/>
</g>
<g id="LWPOLYLINE_248_">
	
		<rect x="175.574" y="487.096" fill="none" stroke="#000000" stroke-width="1.4173" stroke-linecap="round" stroke-linejoin="round" stroke-miterlimit="10" width="0.737" height="90.631"/>
</g>
<g id="LWPOLYLINE_265_">
	
		<rect x="119.56" y="261.752" fill="#515151" stroke="#000000" stroke-width="1.4173" stroke-linecap="round" stroke-linejoin="round" stroke-miterlimit="10" width="12.281" height="12.281"/>
</g>
<g id="LWPOLYLINE_266_">
	
		<rect x="119.56" y="51.226" fill="#515151" stroke="#000000" stroke-width="1.4173" stroke-linecap="round" stroke-linejoin="round" stroke-miterlimit="10" width="12.281" height="12.281"/>
</g>
<g id="INSERT_11_">
	<g id="LINE_22_">
		<line fill="none" x1="67.805" y1="231.928" x2="62.542" y2="231.928"/>
	</g>
	<g id="LINE_23_">
		<line fill="none" x1="67.805" y1="263.507" x2="62.542" y2="263.507"/>
	</g>
	<g id="LWPOLYLINE_271_">
		
			<rect x="67.805" y="261.972" fill="none" stroke="#000000" stroke-width="0.7087" stroke-linecap="round" stroke-linejoin="round" stroke-miterlimit="10" width="31.579" height="1.535"/>
	</g>
	<g id="LWPOLYLINE_272_">
		
			<line fill="none" stroke="#000000" stroke-width="0.7087" stroke-linecap="round" stroke-linejoin="round" stroke-miterlimit="10" x1="67.805" y1="263.507" x2="62.542" y2="263.507"/>
	</g>
	<g id="LWPOLYLINE_273_">
		
			<line fill="none" stroke="#000000" stroke-width="0.7087" stroke-linecap="round" stroke-linejoin="round" stroke-miterlimit="10" x1="62.542" y1="231.928" x2="67.805" y2="231.928"/>
	</g>
	<g id="ARC_13_">
		
			<path fill="none" stroke="#000000" stroke-width="0.7087" stroke-linecap="round" stroke-linejoin="round" stroke-miterlimit="10" d="
			M67.805,231.928c16.829,0.053,30.688,13.238,31.579,30.043"/>
	</g>
</g>
<g id="INSERT_12_">
	<g id="LINE_24_">
		<line fill="none" x1="126.448" y1="57.367" x2="126.448" y2="52.104"/>
	</g>
	<g id="LINE_25_">
		<line fill="none" x1="94.869" y1="57.367" x2="94.869" y2="52.104"/>
	</g>
	<g id="LWPOLYLINE_274_">
		
			<rect x="94.869" y="57.367" fill="none" stroke="#000000" stroke-width="0.7087" stroke-linecap="round" stroke-linejoin="round" stroke-miterlimit="10" width="1.535" height="31.579"/>
	</g>
	<g id="LWPOLYLINE_275_">
		
			<line fill="none" stroke="#000000" stroke-width="0.7087" stroke-linecap="round" stroke-linejoin="round" stroke-miterlimit="10" x1="94.869" y1="57.367" x2="94.869" y2="52.104"/>
	</g>
	<g id="LWPOLYLINE_276_">
		
			<line fill="none" stroke="#000000" stroke-width="0.7087" stroke-linecap="round" stroke-linejoin="round" stroke-miterlimit="10" x1="126.448" y1="52.104" x2="126.448" y2="57.367"/>
	</g>
	<g id="ARC_14_">
		
			<path fill="none" stroke="#000000" stroke-width="0.7087" stroke-linecap="round" stroke-linejoin="round" stroke-miterlimit="10" d="
			M126.448,57.367c-0.053,16.829-13.238,30.688-30.044,31.579"/>
	</g>
</g>
<g id="INSERT_13_">
	<g id="LINE_26_">
		<line fill="none" x1="239.735" y1="349.688" x2="239.735" y2="354.952"/>
	</g>
	<g id="LINE_27_">
		<line fill="none" x1="271.314" y1="349.688" x2="271.314" y2="354.952"/>
	</g>
	<g id="LWPOLYLINE_277_">
		
			<rect x="269.779" y="318.11" fill="none" stroke="#000000" stroke-width="0.7087" stroke-linecap="round" stroke-linejoin="round" stroke-miterlimit="10" width="1.535" height="31.579"/>
	</g>
	<g id="LWPOLYLINE_278_">
		
			<line fill="none" stroke="#000000" stroke-width="0.7087" stroke-linecap="round" stroke-linejoin="round" stroke-miterlimit="10" x1="271.314" y1="349.688" x2="271.314" y2="354.952"/>
	</g>
	<g id="LWPOLYLINE_279_">
		
			<line fill="none" stroke="#000000" stroke-width="0.7087" stroke-linecap="round" stroke-linejoin="round" stroke-miterlimit="10" x1="239.735" y1="354.952" x2="239.735" y2="349.688"/>
	</g>
	<g id="ARC_15_">
		
			<path fill="none" stroke="#000000" stroke-width="0.7087" stroke-linecap="round" stroke-linejoin="round" stroke-miterlimit="10" d="
			M239.735,349.688c0.053-16.829,13.238-30.688,30.044-31.579"/>
	</g>
</g>
<g id="LWPOLYLINE_281_">
	
		<rect x="596.615" y="259.121" fill="none" stroke="#000000" stroke-width="1.4173" stroke-linecap="round" stroke-linejoin="round" stroke-miterlimit="10" width="26.312" height="1.279"/>
</g>
<g id="LWPOLYLINE_282_">
	
		<rect x="596.652" y="310.474" fill="none" stroke="#000000" stroke-width="1.4173" stroke-linecap="round" stroke-linejoin="round" stroke-miterlimit="10" width="26.273" height="0.639"/>
</g>
<g id="ARC_17_">
	
		<path fill="none" stroke="#000000" stroke-width="1.4173" stroke-linecap="round" stroke-linejoin="round" stroke-miterlimit="10" d="
		M596.615,260.4c0.744,14.004,12.293,24.99,26.312,25.037"/>
</g>
<g id="ARC_18_">
	
		<path fill="none" stroke="#000000" stroke-width="1.4173" stroke-linecap="round" stroke-linejoin="round" stroke-miterlimit="10" d="
		M622.932,285.437c-14.021,0.036-25.562,11.034-26.273,25.037"/>
</g>
<g id="LWPOLYLINE_283_">
	
		<rect x="622.932" y="259.121" fill="none" stroke="#000000" stroke-width="1.4173" stroke-linecap="round" stroke-linejoin="round" stroke-miterlimit="10" width="30.838" height="52.631"/>
</g>
<g id="LWPOLYLINE_284_">
	
		<rect x="67.805" y="277.542" fill="none" stroke="#000000" stroke-width="1.4173" stroke-linecap="round" stroke-linejoin="round" stroke-miterlimit="10" width="30.752" height="1.138"/>
</g>
<g id="LWPOLYLINE_285_">
	
		<rect x="67.805" y="339.562" fill="none" stroke="#000000" stroke-width="1.4173" stroke-linecap="round" stroke-linejoin="round" stroke-miterlimit="10" width="30.752" height="1.138"/>
</g>
<g id="ARC_19_">
	
		<path fill="none" stroke="#000000" stroke-width="1.4173" stroke-linecap="round" stroke-linejoin="round" stroke-miterlimit="10" d="
		M98.558,339.562c0.042-16.774-13.523-30.407-30.298-30.448c-0.286-0.001-0.572,0.002-0.858,0.01"/>
</g>
<g id="ARC_20_">
	
		<path fill="none" stroke="#000000" stroke-width="1.4173" stroke-linecap="round" stroke-linejoin="round" stroke-miterlimit="10" d="
		M68.09,309.1c16.55-0.605,29.833-13.871,30.461-30.42"/>
</g>
<g id="LWPOLYLINE_286_">
	
		<polyline fill="none" stroke="#000000" stroke-width="1.4173" stroke-linecap="round" stroke-linejoin="round" stroke-miterlimit="10" points="
		57.297,52.104 263.419,52.104 263.419,58.244 294.998,58.244 294.998,52.104 330.086,52.104 330.086,51.226 342.367,51.226 
		342.367,52.104 540.612,52.104 540.612,51.226 552.893,51.226 552.893,52.104 751.326,52.104 751.326,51.226 763.606,51.226 
		763.606,52.104 961.377,52.104 961.377,51.226 973.658,51.226 973.658,52.104 981.84,52.104 981.84,846.84 915.174,913.507 
		176.577,913.507 176.577,906.489 233.597,906.489 	"/>
</g>
<g id="LWPOLYLINE_287_">
	
		<line fill="none" stroke="#3F7F6F" stroke-width="0.8504" stroke-linecap="round" stroke-linejoin="round" stroke-miterlimit="10" stroke-dasharray="0.625,0.125,0.125,0.125,0.125,0.125" x1="653.77" y1="174.482" x2="653.77" y2="195.535"/>
</g>
<g id="LWPOLYLINE_288_">
	
		<line fill="none" stroke="#3F7F6F" stroke-width="0.8504" stroke-linecap="round" stroke-linejoin="round" stroke-miterlimit="10" stroke-dasharray="0.625,0.125,0.125,0.125,0.125,0.125" x1="653.77" y1="153.43" x2="653.77" y2="174.482"/>
</g>
<g id="LWPOLYLINE_289_">
	
		<line fill="none" stroke="#3F7F6F" stroke-width="0.8504" stroke-linecap="round" stroke-linejoin="round" stroke-miterlimit="10" stroke-dasharray="0.625,0.125,0.125,0.125,0.125,0.125" x1="653.77" y1="132.377" x2="653.77" y2="153.43"/>
</g>
<line fill="none" stroke="#000000" stroke-width="1.4173" stroke-linecap="round" stroke-linejoin="round" stroke-miterlimit="10" x1="176.577" y1="906.489" x2="176.577" y2="913.507"/>
<line fill="none" stroke="#000000" stroke-width="1.4173" stroke-linecap="round" stroke-linejoin="round" stroke-miterlimit="10" x1="176.577" y1="913.507" x2="915.174" y2="913.507"/>
<line fill="none" stroke="#000000" stroke-width="1.4173" stroke-linecap="round" stroke-linejoin="round" stroke-miterlimit="10" x1="974.822" y1="842.179" x2="974.822" y2="428.419"/>
<line fill="none" stroke="#000000" stroke-width="1.4173" stroke-linecap="round" stroke-linejoin="round" stroke-miterlimit="10" x1="974.822" y1="428.419" x2="711.665" y2="428.419"/>
<line fill="none" stroke="#000000" stroke-width="1.4173" stroke-linecap="round" stroke-linejoin="round" stroke-miterlimit="10" x1="711.665" y1="428.419" x2="711.4" y2="906.489"/>
<line fill="none" stroke="#000000" stroke-width="1.4173" stroke-linecap="round" stroke-linejoin="round" stroke-miterlimit="10" x1="981.84" y1="846.84" x2="981.84" y2="423.159"/>
<line fill="none" stroke="#000000" stroke-width="1.4173" stroke-linecap="round" stroke-linejoin="round" stroke-miterlimit="10" x1="981.84" y1="423.159" x2="706.401" y2="423.159"/>
<line fill="none" stroke="#000000" stroke-width="1.4173" stroke-linecap="round" stroke-linejoin="round" stroke-miterlimit="10" x1="706.401" y1="423.159" x2="706.401" y2="913.507"/>
<rect x="177.452" y="906.489" fill="#515151" stroke="#515151" stroke-width="1.4173" stroke-linecap="round" stroke-linejoin="round" stroke-miterlimit="10" width="738.597" height="7.018"/>
<polygon fill="#515151" stroke="#515151" stroke-width="1.4173" stroke-linecap="round" stroke-linejoin="round" stroke-miterlimit="10" points="
	981.84,846.84 981.84,842.179 974.822,842.179 912.6,905.612 916.049,913.507 "/>
<rect x="974.822" y="423.159" fill="#515151" stroke="#515151" stroke-width="1.4173" stroke-linecap="round" stroke-linejoin="round" stroke-miterlimit="10" width="7.018" height="419.02"/>
<rect x="706.401" y="423.159" fill="#515151" stroke="#515151" stroke-width="1.4173" stroke-linecap="round" stroke-linejoin="round" stroke-miterlimit="10" width="268.421" height="5.26"/>
<rect x="706.401" y="428.419" fill="#515151" stroke="#515151" stroke-width="1.4173" stroke-linecap="round" stroke-linejoin="round" stroke-miterlimit="10" width="4.999" height="478.07"/>
<rect x="236.226" y="790.7" fill="#515151" stroke="#515151" stroke-width="1.4173" stroke-linecap="round" stroke-linejoin="round" stroke-miterlimit="10" width="470.175" height="5.263"/>
<rect x="701.139" y="795.963" fill="#515151" stroke="#515151" stroke-width="1.4173" stroke-linecap="round" stroke-linejoin="round" stroke-miterlimit="10" width="10.265" height="110.526"/>
<rect x="543.244" y="795.963" fill="#515151" stroke="#515151" stroke-width="1.4173" stroke-linecap="round" stroke-linejoin="round" stroke-miterlimit="10" width="5.293" height="110.526"/>
<rect x="385.347" y="795.963" fill="#515151" stroke="#515151" stroke-width="1.4173" stroke-linecap="round" stroke-linejoin="round" stroke-miterlimit="10" width="5.269" height="110.526"/>
<rect x="62.542" y="340.7" fill="#515151" stroke="#515151" stroke-width="1.4173" stroke-linecap="round" stroke-linejoin="round" stroke-miterlimit="10" width="5.263" height="198.627"/>
<rect x="106.151" y="577.743" fill="#515151" stroke="#515151" stroke-width="1.4173" stroke-linecap="round" stroke-linejoin="round" stroke-miterlimit="10" width="187.97" height="5.831"/>
<rect x="67.805" y="349.698" fill="#515151" stroke="#515151" stroke-width="1.4173" stroke-linecap="round" stroke-linejoin="round" stroke-miterlimit="10" width="221.053" height="5.254"/>
<rect x="288.858" y="148.595" fill="#515151" stroke="#515151" stroke-width="1.4173" stroke-linecap="round" stroke-linejoin="round" stroke-miterlimit="10" width="5.263" height="487.719"/>
<rect x="294.121" y="148.595" fill="#515151" stroke="#515151" stroke-width="1.4173" stroke-linecap="round" stroke-linejoin="round" stroke-miterlimit="10" width="16.228" height="8.333"/>
<rect x="302.016" y="52.104" fill="#515151" stroke="#515151" stroke-width="1.4173" stroke-linecap="round" stroke-linejoin="round" stroke-miterlimit="10" width="8.333" height="96.491"/>
<rect x="294.998" y="52.104" fill="#515151" stroke="#515151" stroke-width="1.4173" stroke-linecap="round" stroke-linejoin="round" stroke-miterlimit="10" width="416.402" height="5.263"/>
<rect x="131.841" y="51.226" fill="#515151" stroke="#515151" stroke-width="1.4173" stroke-linecap="round" stroke-linejoin="round" stroke-miterlimit="10" width="131.578" height="12.281"/>
<rect x="263.419" y="57.367" fill="#515151" stroke="#515151" stroke-width="1.4173" stroke-linecap="round" stroke-linejoin="round" stroke-miterlimit="10" width="38.597" height="7.017"/>
<rect x="126.448" y="152.446" fill="#515151" stroke="#515151" stroke-width="1.4173" stroke-linecap="round" stroke-linejoin="round" stroke-miterlimit="10" width="6.141" height="110.087"/>
<rect x="67.805" y="268.77" fill="#515151" stroke="#515151" stroke-width="1.4173" stroke-linecap="round" stroke-linejoin="round" stroke-miterlimit="10" width="51.755" height="5.263"/>
<rect x="62.542" y="263.507" fill="#515151" stroke="#515151" stroke-width="1.4173" stroke-linecap="round" stroke-linejoin="round" stroke-miterlimit="10" width="5.263" height="14.035"/>
<rect x="94.121" y="151.665" fill="#515151" stroke="#515151" stroke-width="1.4173" stroke-linecap="round" stroke-linejoin="round" stroke-miterlimit="10" width="32.456" height="5.263"/>
<rect x="599.156" y="57.923" fill="#515151" stroke="#515151" stroke-width="1.4173" stroke-linecap="round" stroke-linejoin="round" stroke-miterlimit="10" width="5.49" height="52.075"/>
<rect x="599.156" y="109.998" fill="#515151" stroke="#515151" stroke-width="1.4173" stroke-linecap="round" stroke-linejoin="round" stroke-miterlimit="10" width="59.877" height="5.819"/>
<rect x="653.77" y="115.817" fill="#515151" stroke="#515151" stroke-width="1.4173" stroke-linecap="round" stroke-linejoin="round" stroke-miterlimit="10" width="5.267" height="95.935"/>
<rect x="484.033" y="206.489" fill="#515151" stroke="#515151" stroke-width="1.4173" stroke-linecap="round" stroke-linejoin="round" stroke-miterlimit="10" width="169.733" height="5.263"/>
<rect x="478.77" y="57.367" fill="#515151" stroke="#515151" stroke-width="1.4173" stroke-linecap="round" stroke-linejoin="round" stroke-miterlimit="10" width="5.267" height="154.385"/>
<rect x="711.4" y="52.104" fill="#515151" stroke="#515151" stroke-width="1.4173" stroke-linecap="round" stroke-linejoin="round" stroke-miterlimit="10" width="270.438" height="10.526"/>
<rect x="711.4" y="62.63" fill="#515151" stroke="#515151" stroke-width="1.4173" stroke-linecap="round" stroke-linejoin="round" stroke-miterlimit="10" width="7.021" height="360.529"/>
<rect x="716.928" y="157.367" fill="#515151" stroke="#515151" stroke-width="1.4173" stroke-linecap="round" stroke-linejoin="round" stroke-miterlimit="10" width="264.912" height="5.266"/>
<rect x="974.824" y="62.63" fill="#515151" stroke="#515151" stroke-width="1.4173" stroke-linecap="round" stroke-linejoin="round" stroke-miterlimit="10" width="7.016" height="94.737"/>
<rect x="974.822" y="163.19" fill="#515151" stroke="#515151" stroke-width="1.4173" stroke-linecap="round" stroke-linejoin="round" stroke-miterlimit="10" width="7.018" height="100.317"/>
<rect x="820.438" y="160.241" fill="#515151" stroke="#515151" stroke-width="1.4173" stroke-linecap="round" stroke-linejoin="round" stroke-miterlimit="10" width="5.382" height="110.286"/>
<rect x="715.834" y="265.268" fill="#515151" stroke="#515151" stroke-width="1.4173" stroke-linecap="round" stroke-linejoin="round" stroke-miterlimit="10" width="104.632" height="5.259"/>
<rect x="846.417" y="289.506" fill="#515151" stroke="#515151" stroke-width="1.4173" stroke-linecap="round" stroke-linejoin="round" stroke-miterlimit="10" width="135.423" height="4.384"/>
<rect x="961.781" y="262.312" fill="#515151" stroke="#515151" stroke-width="1.4173" stroke-linecap="round" stroke-linejoin="round" stroke-miterlimit="10" width="20.059" height="27.194"/>
<rect x="974.852" y="294.211" fill="#515151" stroke="#515151" stroke-width="1.4173" stroke-linecap="round" stroke-linejoin="round" stroke-miterlimit="10" width="6.988" height="128.948"/>
<rect x="706.401" y="57.923" fill="#515151" stroke="#515151" stroke-width="1.4173" stroke-linecap="round" stroke-linejoin="round" stroke-miterlimit="10" width="4.999" height="365.236"/>
<rect x="622.191" y="212.63" fill="#515151" stroke="#515151" stroke-width="1.4173" stroke-linecap="round" stroke-linejoin="round" stroke-miterlimit="10" width="4.272" height="46.491"/>
<rect x="627.454" y="253.858" fill="#515151" stroke="#515151" stroke-width="1.4173" stroke-linecap="round" stroke-linejoin="round" stroke-miterlimit="10" width="31.579" height="5.263"/>
<rect x="653.77" y="259.121" fill="#515151" stroke="#515151" stroke-width="1.4173" stroke-linecap="round" stroke-linejoin="round" stroke-miterlimit="10" width="5.267" height="58.989"/>
<rect x="622.932" y="311.752" fill="#515151" stroke="#515151" stroke-width="1.4173" stroke-linecap="round" stroke-linejoin="round" stroke-miterlimit="10" width="83.473" height="6.231"/>
<line fill="none" stroke="#515151" stroke-width="1.4173" stroke-linecap="round" stroke-linejoin="round" stroke-miterlimit="10" x1="844.15" y1="294.211" x2="846.417" y2="293.89"/>
<polyline fill="#515151" stroke="#515151" stroke-width="1.4173" stroke-linecap="round" stroke-linejoin="round" stroke-miterlimit="10" points="
	844.15,294.211 820.466,270.527 827.438,270.524 846.417,289.506 846.417,293.89 "/>
<line fill="none" x1="62.542" y1="539.327" x2="62.542" y2="541.577"/>
<line fill="none" x1="104.647" y1="583.683" x2="106.151" y2="583.574"/>
<polyline fill="#515151" stroke="#515151" stroke-miterlimit="10" points="62.542,539.327 67.805,539.327 106.151,577.743 
	106.151,583.574 104.647,583.683 62.542,541.577 "/>
<line fill="none" x1="62.542" y1="539.327" x2="62.542" y2="541.577"/>
<rect x="252.618" y="636.314" fill="#515151" stroke="#515151" stroke-width="1.4173" stroke-linecap="round" stroke-linejoin="round" stroke-miterlimit="10" width="41.503" height="5.263"/>
<polyline fill="#515151" stroke="#515151" stroke-width="1.4173" stroke-linecap="round" stroke-linejoin="round" stroke-miterlimit="10" points="
	252.618,636.314 180.086,708.846 183.595,712.78 254.798,641.577 252.618,641.577 "/>
<line fill="none" stroke="#000000" stroke-width="1.4173" stroke-linecap="round" stroke-linejoin="round" stroke-miterlimit="10" x1="67.805" y1="193.77" x2="67.805" y2="195.95"/>
<polyline fill="#515151" stroke="#515151" stroke-width="1.4173" stroke-linecap="round" stroke-linejoin="round" stroke-miterlimit="10" points="
	67.805,193.77 62.542,193.77 94.121,151.665 93.683,152.762 93.683,157.667 93.683,158.366 95.637,158.366 67.805,195.95 "/>
<rect x="62.542" y="193.77" fill="#515151" stroke="#515151" stroke-width="1.4173" stroke-linecap="round" stroke-linejoin="round" stroke-miterlimit="10" width="5.263" height="38.158"/>
<line fill="none" stroke="#515151" stroke-width="1.4173" stroke-linecap="round" stroke-linejoin="round" stroke-miterlimit="10" x1="974.822" y1="428.419" x2="974.822" y2="842.179"/>
<line fill="none" stroke="#515151" stroke-width="1.4173" stroke-linecap="round" stroke-linejoin="round" stroke-miterlimit="10" x1="294.121" y1="641.577" x2="294.121" y2="156.928"/>
<line fill="none" stroke="#515151" stroke-width="1.4173" stroke-linecap="round" stroke-linejoin="round" stroke-miterlimit="10" x1="310.349" y1="156.928" x2="310.349" y2="57.367"/>
<line fill="none" stroke="#515151" stroke-width="1.4173" stroke-linecap="round" stroke-linejoin="round" stroke-miterlimit="10" x1="67.856" y1="354.952" x2="288.858" y2="354.952"/>
<line fill="none" stroke="#515151" stroke-width="1.4173" stroke-linecap="round" stroke-linejoin="round" stroke-miterlimit="10" x1="288.858" y1="354.952" x2="288.858" y2="577.743"/>
<line fill="none" x1="974.852" y1="423.159" x2="718.424" y2="423.159"/>
<line fill="none" x1="961.781" y1="289.506" x2="846.417" y2="289.506"/>
<line fill="none" x1="288.858" y1="349.698" x2="67.805" y2="349.698"/>
<rect x="57.297" y="981.957" fill="#494322" stroke="#515151" stroke-width="1.4173" stroke-linecap="round" stroke-linejoin="round" stroke-miterlimit="10" width="924.543" height="72.584"/>
<line fill="none" stroke="#515151" stroke-width="1.4173" stroke-linecap="round" stroke-linejoin="round" stroke-miterlimit="10" x1="119.56" y1="261.752" x2="119.56" y2="268.77"/>
<g>
	<ellipse fill="#0E7708" cx="159.818" cy="996.874" rx="42.399" ry="37.667"/>
	<ellipse fill="#0E7708" cx="184.866" cy="1025.708" rx="35.134" ry="28.834"/>
	<ellipse fill="#0E7708" cx="126.412" cy="1034.874" rx="35.745" ry="31.666"/>
	<ellipse fill="#0E7708" cx="165.732" cy="1048.791" rx="26.399" ry="23.083"/>
</g>
<g>
	<ellipse fill="#0E7708" cx="357.725" cy="1004.624" rx="42.398" ry="37.667"/>
	<ellipse fill="#0E7708" cx="369.917" cy="1039.624" rx="35.134" ry="28.834"/>
	<ellipse fill="#0E7708" cx="311.462" cy="1017.124" rx="35.745" ry="31.666"/>
	<ellipse fill="#0E7708" cx="343.477" cy="1048.791" rx="26.399" ry="23.083"/>
</g>
<g>
	<ellipse fill="#0E7708" cx="901.893" cy="1002.997" rx="42.398" ry="37.667"/>
	<ellipse fill="#0E7708" cx="914.085" cy="1037.997" rx="35.134" ry="28.834"/>
	<ellipse fill="#0E7708" cx="855.63" cy="1015.497" rx="35.745" ry="31.666"/>
	<ellipse fill="#0E7708" cx="887.645" cy="1047.164" rx="26.399" ry="23.083"/>
</g>
<g>
	<ellipse fill="#0E7708" cx="514.062" cy="999.498" rx="42.396" ry="37.667"/>
	<ellipse fill="#0E7708" cx="564.749" cy="1008.666" rx="35.134" ry="28.834"/>
	<ellipse fill="#0E7708" cx="509.415" cy="1040.664" rx="35.745" ry="31.666"/>
	<ellipse fill="#0E7708" cx="545.619" cy="1043.331" rx="26.396" ry="23.083"/>
</g>
<g>
	<ellipse fill="#0E7708" cx="720.261" cy="998.414" rx="42.398" ry="37.667"/>
	<ellipse fill="#0E7708" cx="745.31" cy="1027.248" rx="35.137" ry="28.834"/>
	<ellipse fill="#0E7708" cx="686.855" cy="1017.582" rx="35.742" ry="31.666"/>
	<ellipse fill="#0E7708" cx="726.175" cy="1050.331" rx="26.399" ry="23.083"/>
</g>
</svg>
