<?xml version="1.0" standalone="no"?>
<!DOCTYPE svg PUBLIC "-//W3C//DTD SVG 20010904//EN"
 "http://www.w3.org/TR/2001/REC-SVG-20010904/DTD/svg10.dtd">
<svg version="1.0" xmlns="http://www.w3.org/2000/svg"
 width="200.000000pt" height="200.000000pt" viewBox="0 0 200.000000 200.000000"
 preserveAspectRatio="xMidYMid meet">
<metadata>
Created by potrace 1.11, written by Peter Selinger 2001-2013
</metadata>
<g transform="translate(0.000000,200.000000) scale(0.100000,-0.100000)"
fill="#000000" stroke="none">
<path d="M925 1925 c-22 -9 -79 -29 -126 -45 -47 -16 -103 -35 -125 -43 -53
-20 -59 -22 -214 -77 -219 -78 -329 -118 -341 -125 -10 -7 -10 -20 6 -116 2
-13 6 -51 9 -84 4 -33 8 -76 10 -95 3 -19 7 -57 10 -85 3 -27 7 -66 10 -85 5
-34 14 -116 22 -190 2 -19 6 -55 9 -80 10 -80 15 -124 20 -175 26 -238 29
-255 51 -255 8 0 14 -4 14 -10 0 -5 5 -10 10 -10 6 0 65 -31 133 -68 67 -38
153 -85 190 -106 37 -20 84 -46 105 -58 20 -11 89 -50 153 -85 l116 -63 98 55
c54 31 130 73 169 94 39 21 92 50 119 65 26 14 66 37 90 50 23 13 60 33 82 46
22 12 69 38 105 57 84 45 87 49 94 108 3 28 11 88 17 135 6 47 13 101 15 120
3 19 6 46 8 60 2 14 7 57 11 95 4 39 9 77 10 85 6 37 15 99 21 150 12 109 14
126 20 165 4 22 8 56 10 75 1 19 6 62 10 95 16 124 26 111 -121 162 -71 24
-134 46 -140 47 -5 2 -17 6 -25 9 -29 11 -405 139 -455 154 -27 8 -55 19 -61
24 -21 17 -98 20 -139 4z"/>
</g>
</svg>
